<svg xmlns="http://www.w3.org/2000/svg" fill-rule="evenodd" clip-rule="evenodd" image-rendering="optimizeQuality" shape-rendering="geometricPrecision" text-rendering="geometricPrecision" viewBox="0 0 512 452.6"><path d="M368.4 161c-33.1-59.3-90.7-98.2-164.8-90-69 7.8-132 57.7-147.2 131.7-12.8 62 10.8 121.1 52.6 161.1 49 46.7 122.7 67.3 192.7 36A180 180 0 0 0 380 337c1.9-2.5 4.4-6.4 7.8-9 10.1-7.5 23.4 1.4 21.3 12.4a19 19 0 0 1-3.3 7.6 215 215 0 0 1-53.4 58.4 221 221 0 0 1-179 41.8 214.6 214.6 0 0 1-139.4-97.8C-19 264.9-7 162 48.3 89.9A227.8 227.8 0 0 1 195.8 2.7C301-13.4 406.5 44.9 440.3 138l42.6-13.6a22.4 22.4 0 0 1 28 14.6 22.3 22.3 0 0 1-.8 15.9l-48.7 108.5a22.4 22.4 0 0 1-29.6 11.3l-1.6-.8-106.7-58.8a22.4 22.4 0 0 1 5.5-41.5l39.4-12.6z"/></svg>