<svg xmlns="http://www.w3.org/2000/svg" fill-rule="evenodd" clip-rule="evenodd" image-rendering="optimizeQuality" shape-rendering="geometricPrecision" text-rendering="geometricPrecision" viewBox="0 0 466 512"><path d="M390 104c-14.1 10.5-29 21.2-36.8 25.7-19.6 11.1-22.9 38.5-14.4 39.7 3.3.5 14.4-5.3 27.2-13 29.6-17.7 75-47.3 93.5-76.3 4.3-6.6 6.8-13.1 6.5-19-.3-4.4-2.8-7.6-8.3-9.3A551 551 0 0 1 354.9 1.4a9 9 0 0 0-6.7-1.2C341.5 2 335.7 16 333.8 21.8c-2.7 8.6-1.7 13.6 5.2 18.3 13.5 9.4 29 16.3 44.5 23-111.9 7.2-204 54.7-270 126.7C40.8 269.4 0 378.8 0 496.2c0 6.7.6 10.5 4 13.3 3.2 2.5 7.2 2.7 14.2 2.3 10.8-.5 16.8-2.6 20.8-9.2 3.4-5.6 4.3-13.8 5-27.4l1-12c6.5-98.6 45.3-189.6 110-255.4 58.6-59.5 138.5-98.4 235-103.8z"/></svg>